<svg width="600" height="140" viewBox="0 0 600 140"
    xmlns="http://www.w3.org/2000/svg">
    <!-- Fondo -->
    <rect x="8" y="8" rx="16" ry="16" width="584" height="124" fill="#000000" stroke="#1f1f1f" stroke-width="2"/>

    <!-- Express (40x40 @ x=140,y=28) -->
    <g transform="translate(80,28) scale(1.25)" fill="#e6e6e6">
        <path d="M32 24.795c-1.164.296-1.884.013-2.53-.957l-4.594-6.356-.664-.88-5.365 7.257c-.613.873-1.256 1.253-2.4.944l6.87-9.222-6.396-8.33c1.1-.214 1.86-.105 2.535.88l4.765 6.435 4.8-6.4c.615-.873 1.276-1.205 2.38-.883l-2.48 3.288-3.36 4.375c-.4.5-.345.842.023 1.325L32 24.795zM.008 15.427l.562-2.764C2.1 7.193 8.37 4.92 12.694 8.3c2.527 1.988 3.155 4.8 3.03 7.95H1.48c-.214 5.67 3.867 9.092 9.07 7.346 1.825-.613 2.9-2.042 3.438-3.83.273-.896.725-1.036 1.567-.78-.43 2.236-1.4 4.104-3.45 5.273-3.063 1.75-7.435 1.184-9.735-1.248C1 21.6.434 19.812.18 17.9c-.04-.316-.12-.617-.18-.92q.008-.776.008-1.552zm1.498-.38h12.872c-.084-4.1-2.637-7.012-6.126-7.037-3.83-.03-6.58 2.813-6.746 7.037z"/>
    </g>

    <!-- Node.js (40x40 @ x=280,y=28) -->
    <g transform="translate(276,28) scale(0.3125)">
        <!-- Gradientes renombrados para evitar colisiones -->
        <defs>
            <linearGradient id="node-a" x1="34.513" x2="27.157" y1="15.535" y2="30.448" gradientTransform="translate(-129.242 -73.715) scale(6.18523)" gradientUnits="userSpaceOnUse">
                <stop stop-color="#3F873F"/>
                <stop offset=".33" stop-color="#3F8B3D"/>
                <stop offset=".637" stop-color="#3E9638"/>
                <stop offset=".934" stop-color="#3DA92E"/>
                <stop offset="1" stop-color="#3DAE2B"/>
            </linearGradient>
            <linearGradient id="node-b" x1="30.009" x2="50.533" y1="23.359" y2="8.288" gradientTransform="translate(-129.242 -73.715) scale(6.18523)" gradientUnits="userSpaceOnUse">
                <stop offset=".138" stop-color="#3F873F"/>
                <stop offset=".402" stop-color="#52A044"/>
                <stop offset=".713" stop-color="#64B749"/>
                <stop offset=".908" stop-color="#6ABF4B"/>
            </linearGradient>
            <linearGradient id="node-c" x1="21.917" x2="40.555" y1="22.261" y2="22.261" gradientTransform="translate(-129.242 -73.715) scale(6.18523)" gradientUnits="userSpaceOnUse">
                <stop offset=".092" stop-color="#6ABF4B"/>
                <stop offset=".287" stop-color="#64B749"/>
                <stop offset=".598" stop-color="#52A044"/>
                <stop offset=".862" stop-color="#3F873F"/>
            </linearGradient>
        </defs>
        <path fill="url(#node-a)" d="M66.958.825a6.07 6.07 0 0 0-6.035 0L11.103 29.76c-1.895 1.072-2.96 3.095-2.96 5.24v57.988c0 2.143 1.183 4.167 2.958 5.24l49.82 28.934a6.07 6.07 0 0 0 6.036 0l49.82-28.935c1.894-1.072 2.958-3.096 2.958-5.24V35c0-2.144-1.183-4.167-2.958-5.24z"/>
        <path fill="url(#node-b)" d="M116.897 29.76 66.841.825A8.161 8.161 0 0 0 65.302.23L9.21 96.798a6.251 6.251 0 0 0 1.657 1.43l50.057 28.934c1.42.833 3.076 1.072 4.615.595l52.66-96.925a3.702 3.702 0 0 0-1.302-1.072z"/>
        <path fill="url(#node-c)" d="M116.898 98.225c1.42-.833 2.485-2.262 2.958-3.81L65.066.108c-1.42-.238-2.959-.119-4.26.715L11.104 29.639l53.606 98.355c.71-.12 1.54-.358 2.25-.715z"/>
    </g>

    <!-- Spring Boot (40x40 @ x=420,y=28) -->
    <g transform="translate(480,28) scale(0.3125)">
        <path d="M116.452 6.643a59.104 59.104 0 01-6.837 12.136A64.249 64.249 0 0064.205-.026C28.984-.026 0 28.982 0 64.242a64.316 64.316 0 0019.945 46.562l2.368 2.1a64.22 64.22 0 0041.358 15.122c33.487 0 61.637-26.24 64.021-59.683 1.751-16.371-3.051-37.077-11.24-61.7zM29.067 111.17a5.5 5.5 0 01-4.269 2.034c-3.018 0-5.487-2.484-5.487-5.502 0-3.017 2.485-5.501 5.487-5.501 1.25 0 2.485.433 3.452 1.234 2.351 1.9 2.718 5.384.817 7.735zm87.119-19.238c-15.843 21.122-49.68 14.003-71.376 15.02 0 0-3.852.234-7.721.867 0 0 1.45-.617 3.335-1.334 15.226-5.301 22.43-6.335 31.685-11.086 17.427-8.869 34.654-28.274 38.24-48.463-6.637 19.422-26.75 36.11-45.077 42.895-12.557 4.635-35.238 9.136-35.238 9.136l-.917-.484c-15.442-7.518-15.91-40.977 12.157-51.78 12.291-4.735 24.048-2.134 37.323-5.302 14.175-3.367 30.568-14.004 37.238-27.874 7.471 22.19 16.46 56.932.35 78.405z" fill="#77bc1f"/>
    </g>

    <!-- Etiquetas -->
    <g font-size="13" font-family="JetBrains Mono, ui-monospace, monospace" fill="#9aa0a6" text-anchor="middle">
        <text x="100" y="92">Express</text>
        <text x="300" y="92">Node.js</text>
        <text x="500" y="92">Spring Boot</text>
    </g>
</svg>
