<svg width="600" height="140" viewBox="0 0 600 140"
    xmlns="http://www.w3.org/2000/svg">
    <!-- Fondo -->
    <rect x="8" y="8" rx="16" ry="16" width="584" height="124" fill="#000000" stroke="#1f1f1f" stroke-width="2"/>

    <!-- Express (40x40 @ x=140,y=28) -->
    <g transform="translate(-20,28) scale(0.4)" fill="#e6e6e6">
        <svg xmlns="http://www.w3.org/2000/svg" viewBox="0 0 128 128">
            <g fill="#00979c" fill-rule="evenodd">
                <path d="M.3 66.5v-9.6c.2-.1.2-.3.2-.5 3-13.1 11.2-21 24.2-24.1 1.1-.3 2.3-.2 3.4-.6h6.4c.1.2.4.1.6.1 6.4.7 12.2 3 17.3 7 4.4 3.3 7.8 7.5 10.9 12 .4.6.6.6 1 0 1.8-2.6 3.7-5.1 5.9-7.4 5.3-5.7 11.7-9.7 19.5-11.1 1.1-.3 2.4-.2 3.5-.6h6.2c.1.2.3.1.5.1 1.9.2 3.7.6 5.5 1.1 13.4 3.9 22.9 16.2 22.1 30.1-.6 11.7-6.5 20.1-16.8 25.4-5.1 2.8-10.7 3.5-16.5 3.4-7.6-.1-14.2-2.7-19.9-7.7-4-3.5-7.1-7.7-10-12.1-.4-.6-.6-.5-1 .1-1.8 2.7-3.7 5.4-5.9 8-3.9 4.4-8.4 8-14 9.9-6.9 2.4-13.9 2.5-20.9.6-10.1-2.9-17-9.3-20.8-19.1-.6-1.6-.9-3.4-1.4-5zm31.8 14.7c5.7.2 10.6-1.7 14.8-5.6 4.3-4 7.4-9 10.5-13.9.1-.3.1-.5-.1-.8-2.6-4.1-5.3-8.2-8.9-11.6-6.9-6.6-15-8.8-24.1-5.9-7.5 2.5-12.3 7.8-13.4 15.8-1.1 7.5 1.8 13.5 7.8 18 4 2.9 8.5 4.1 13.4 4zm63.4 0c2.2 0 4.4-.1 6.5-.7 7.9-2.4 13.1-7.3 14.6-15.5 1.5-8.1-1.6-14.6-8.4-19.2-7.5-5.2-18.4-4.7-26 1-5.1 3.8-8.5 8.9-11.9 14.2-.2.3-.1.5 0 .8 2.7 4.3 5.4 8.6 8.9 12.3 4.4 4.7 9.7 7.4 16.3 7.1zm0 0"/>
                <path d="M32 58.5c3.2 0 6.5.1 9.7 0 .8 0 .9.2.9 1-.1.9-.1 1.8 0 2.7.1.8-.1 1-1 1H28.8c-2.2 0-4.4-.1-6.6 0-.7 0-.9-.2-.9-1 .1-.9.1-1.8 0-2.8 0-.7.2-.9.9-.9 3.2.1 6.5 0 9.8 0zm63-6.4c.8 0 1.6.1 2.3 0 .5 0 .7.2.7.7-.1 1.4 0 2.8-.1 4.2 0 .7.2.9.9.9 1.3-.1 2.7 0 4.1-.1.6 0 .8.1.8.8v4.6c0 .5-.2.7-.7.7-1.4-.1-2.8 0-4.3-.1-.6 0-.8.2-.8.8.1 1.4 0 2.8.1 4.2 0 .6-.2.9-.8.9-1.5-.1-3-.1-4.5 0-.6 0-.8-.2-.8-.8.1-1.5 0-2.9.1-4.4 0-.5-.2-.7-.7-.7-1.4.1-2.8 0-4.2.1-.8 0-.9-.3-.9-.9 0-1.4.1-2.8 0-4.2-.1-.8.3-1 1-1 1.4.1 2.7 0 4.1.1.5 0 .7-.2.7-.7-.1-1.4 0-2.9-.1-4.3 0-.6.2-.8.8-.8.8.1 1.5 0 2.3 0zm29.852-27.623c-.133.199-.18.265-.223.332-.242.363-.055 1.097-.664 1.086-.54-.012-.403-.684-.594-1.051-.05-.098-.11-.188-.277-.461 0 .504.008.789 0 1.078-.008.195.035.441-.274.457-.312.016-.293-.234-.297-.43-.007-.68-.007-1.355-.003-2.031 0-.23-.036-.496.324-.504.27-.004.504-.015.617.336.144.43.195.91.527 1.324.317-.402.371-.867.492-1.293.102-.347.317-.37.598-.37.356.003.34.253.344.488.004.68.004 1.355-.004 2.035-.004.191.023.445-.281.449-.305 0-.282-.242-.285-.442-.008-.289 0-.574 0-1.003zm-3.712-1.532c.087 0 .18-.015.262 0 .325.063.828-.187.934.2.144.543-.426.27-.668.386-.242.117-.195.332-.2.528-.011.468-.007.937-.007 1.406 0 .258-.05.473-.383.46-.305-.01-.293-.234-.293-.437a36.975 36.975 0 01-.004-1.316c.012-.375.016-.727-.523-.676-.188.016-.352-.039-.352-.277 0-.328.254-.262.442-.27.265-.012.527-.004.793-.004zm0 0"/>
            </g>
        </svg>
    </g>

    <!-- Node.js (40x40 @ x=280,y=28) -->
    <g transform="translate(150,22) scale(0.5)">
       <svg xmlns="http://www.w3.org/2000/svg" viewBox="0 0 512 512">
            <defs>
                <!-- Gradientes -->
                <radialGradient id="nucleus" cx="42%" cy="35%" r="60%">
                    <stop offset="0%" stop-color="#8fe8ff"/>
                    <stop offset="45%" stop-color="#2aa8ea"/>
                    <stop offset="85%" stop-color="#0660b2"/>
                    <stop offset="100%" stop-color="#04356a"/>
                </radialGradient>
                <radialGradient id="nucleusGloss" cx="20%" cy="15%" r="40%">
                    <stop offset="0%" stop-color="#ffffff" stop-opacity="0.9"/>
                    <stop offset="100%" stop-color="#ffffff" stop-opacity="0"/>
                </radialGradient>
                <radialGradient id="electron" cx="35%" cy="30%" r="70%">
                    <stop offset="0%" stop-color="#fff1a6"/>
                    <stop offset="55%" stop-color="#f3c61f"/>
                    <stop offset="85%" stop-color="#c68b00"/>
                    <stop offset="100%" stop-color="#8a5a00"/>
                </radialGradient>
                <linearGradient id="steelStroke" x1="0%" y1="0%" x2="100%" y2="100%">
                    <stop offset="0%" stop-color="#e8edf2"/>
                    <stop offset="35%" stop-color="#cdd5dd"/>
                    <stop offset="65%" stop-color="#9aa5b0"/>
                    <stop offset="100%" stop-color="#f2f6fa"/>
                </linearGradient>
                <!-- Brillo de órbitas -->
                <filter id="orbitGlow" x="-40%" y="-40%" width="180%" height="180%">
                    <feGaussianBlur stdDeviation="2" result="b"/>
                    <feMerge>
                        <feMergeNode in="b"/>
                        <feMergeNode in="SourceGraphic"/>
                    </feMerge>
                </filter>
                <!-- Glow cian del núcleo -->
                <filter id="blueGlow" x="-60%" y="-60%" width="220%" height="220%">
                    <feGaussianBlur stdDeviation="14" result="g"/>
                    <feColorMatrix type="matrix" values="
        0 0 0 0 0
        0 0 0 0.85 0
        0 0 0 0.95 0
        0 0 0 0.9 0"/>
                    <feMerge>
                        <feMergeNode/>
                        <feMergeNode in="SourceGraphic"/>
                    </feMerge>
                </filter>
            </defs>

            <!-- Fondo transparente -->
            <rect width="100%" height="100%" fill="none"/>

            <!-- NÚCLEO -->
            <g transform="translate(0,0)">
                <!-- halo cian -->
                <circle cx="256" cy="256" r="110" fill="#39e2ff" opacity="0.35" filter="url(#blueGlow)"/>
                <!-- esfera -->
                <circle cx="256" cy="256" r="95" fill="url(#nucleus)" stroke="#013b74" stroke-width="5"/>
                <!-- brillo especular -->
                <ellipse cx="226" cy="226" rx="38" ry="22" fill="url(#nucleusGloss)" transform="rotate(-25 226 226)"/>
            </g>

            <!-- ÓRBITAS (tres elipses con “cromo”) -->
            <g stroke="url(#steelStroke)" stroke-linecap="round" fill="none" filter="url(#orbitGlow)">
                <ellipse cx="256" cy="256" rx="182" ry="82" stroke-width="9"/>
                <ellipse cx="256" cy="256" rx="82" ry="182" stroke-width="9" transform="rotate(60 256 256)"/>
                <ellipse cx="256" cy="256" rx="82" ry="182" stroke-width="9" transform="rotate(-60 256 256)"/>
                <!-- sombreado fino para dar volumen -->
                <g opacity=".35" stroke="#33404c">
                    <ellipse cx="256" cy="256" rx="182" ry="82" stroke-width="1.6"/>
                    <ellipse cx="256" cy="256" rx="82" ry="182" stroke-width="1.6" transform="rotate(60 256 256)"/>
                    <ellipse cx="256" cy="256" rx="82" ry="182" stroke-width="1.6" transform="rotate(-60 256 256)"/>
                </g>
            </g>

            <!-- ELECTRONES (posicionados en intersecciones típicas) -->
            <g>
                <!-- top-right -->
                <g transform="translate(372 148)">
                    <circle r="22" fill="url(#electron)" stroke="#1f2830" stroke-width="4"/>
                    <path d="M-10 -6 C -2 -15 8 -18 18 -12" fill="none" stroke="#ffffff" stroke-width="3" stroke-linecap="round" opacity=".8"/>
                </g>
                <!-- top-left -->
                <g transform="translate(140 148)">
                    <circle r="22" fill="url(#electron)" stroke="#1f2830" stroke-width="4"/>
                    <path d="M-10 -6 C -2 -15 8 -18 18 -12" fill="none" stroke="#ffffff" stroke-width="3" stroke-linecap="round" opacity=".8"/>
                </g>
                <!-- bottom-right -->
                <g transform="translate(372 364)">
                    <circle r="22" fill="url(#electron)" stroke="#1f2830" stroke-width="4"/>
                    <path d="M-10 -6 C -2 -15 8 -18 18 -12" fill="none" stroke="#ffffff" stroke-width="3" stroke-linecap="round" opacity=".8"/>
                </g>
                <!-- bottom-left -->
                <g transform="translate(140 364)">
                    <circle r="22" fill="url(#electron)" stroke="#1f2830" stroke-width="4"/>
                    <path d="M-10 -6 C -2 -15 8 -18 18 -12" fill="none" stroke="#ffffff" stroke-width="3" stroke-linecap="round" opacity=".8"/>
                </g>
            </g>
        </svg>
    </g>

    <!-- Spring Boot (40x40 @ x=420,y=28) -->
        <g transform="translate(345,20) scale(0.5)" fill="white">
    <svg role="img" viewBox="0 0 24 24"
        xmlns="http://www.w3.org/2000/svg">
        <title>KiCad</title>
        <path d="M7.4668 7.3039c-.472.0238-.8477.4142-.8477.8906 0 .4918.3994.8906.8926.8906.4933 0 .8926-.3988.8926-.8906 0-.4918-.3993-.8906-.8926-.8906-.0154 0-.0297-.0008-.0449 0zM.25 8.0109c-.1394 0-.25.1214-.25.254v8.1777c0 .1325.1106.2539.25.2539h8.5215c.1394 0 .248-.1214.248-.254V8.2649c0-.1327-.1083-.2539-.248-.2539h-.2598c.011.0595.0176.121.0176.1836 0 .0605-.0054.1201-.0156.1777h.1445v7.963H.3613v-7.963h6.1485a1.0179 1.0179 0 0 1-.0157-.1777c0-.0628.0066-.1238.0176-.1836zm.2617.5117v7.664h7.9961v-7.664h-.0332a1.025 1.025 0 0 1-.4883.5703.8482.8482 0 0 1-.4746.1426.8483.8483 0 0 1-.4746-.1426 1.025 1.025 0 0 1-.4883-.5703zm21.5606.252c.0966.1084.1562.2266.1797.3555.0116.0615.0175.1992.0175.4101v1.664c-.2753-.2606-.6554-.3906-1.1386-.3906-.3662 0-.6896.1007-.9707.3028-.5946.4276-.8926 1.2249-.8926 2.3906 0 .3515.0469.67.1406.957.1347.41.3487.7335.6387.9707.3075.252.669.379 1.0879.379.495 0 .9034-.1574 1.2226-.4708v.373H24c-.1347-.1492-.2012-.4072-.2012-.7733v-6.168Zm-9.6328.2988c-.785 0-1.463.2873-2.0372.8613-.6209.621-.9316 1.4593-.9316 2.5137 0 .9402.253 1.7238.7598 2.3535.5447.6795 1.2746 1.0196 2.1914 1.0196.577 0 1.0987-.131 1.5644-.3946.2636-.1494.414-.22.4492-.211l-.7304-1.1952c-.3456.3807-.7404.5703-1.1856.5703-.249 0-.4834-.0782-.703-.2363-.4717-.3398-.7071-.9749-.7071-1.9063 0-.328.0322-.628.0996-.9004.205-.8318.6447-1.248 1.3183-1.248.4306 0 .7755.1641 1.0332.4922l.7872-1.1426c-.085-.009-.1964-.0508-.334-.127-.536-.2987-1.0617-.4492-1.5742-.4492zM.5605 9.175H2.625c-.164.164-.2461.4474-.246.8515v1.6133l1.2616-1.5957c.2578-.325.3867-.5674.3867-.7285 0-.0585-.0088-.1054-.0234-.1406h2.2012c-.167.0937-.375.2901-.627.5918-.0673.079-.1856.2247-.3554.4355L3.5703 12.259l1.9727 2.7148c.12.164.2725.3497.457.5547.0498.0527.1211.1144.2148.1875H3.957a.7156.7156 0 0 0 .0254-.1797c0-.1611-.1114-.3946-.334-.6992L2.379 13.1066v1.754c0 .407.082.6914.2461.8554H.5605c.1143-.1142.1866-.2442.2188-.3906.0175-.082.0273-.2355.0273-.461v-4.8379c0-.2255-.0098-.3789-.0273-.4609-.0322-.1464-.1045-.2764-.2188-.3906zm16.2032 1.6386c-.2373 0-.4561.0195-.6582.0605l-.5977.1504c-.2812.0703-.4717.1055-.5683.1055l.4355 1.0488c.41-.2167.8019-.3242 1.1738-.3242.4364 0 .6543.2511.6543.752-.2167-.0116-.3691-.0176-.457-.0176-.618 0-1.0987.083-1.4414.25-.5946.29-.8906.7384-.8906 1.3476 0 .2666.0469.506.1406.7168.1318.2959.3409.5244.6308.6856.2754.1522.5831.2276.92.2246.4745-.006.8623-.1632 1.164-.4707v.373h1.6387c-.0996-.1083-.1621-.2276-.1855-.3594-.0117-.0644-.0176-.2031-.0176-.414V12.794c0-.4305-.0587-.791-.1758-1.084-.2402-.5974-.8284-.8964-1.7656-.8964zm-10.211.0957h1.7266v4.0332c0 .211.0059.3497.0176.4141.0234.1318.086.251.1855.3594H6.5488c.0996-.1083.1602-.2276.1836-.3594.0117-.0644.0176-.2032.0176-.414V11.675c0-.2109-.0059-.3467-.0176-.4082-.0234-.1289-.083-.249-.1797-.3574zM21.623 11.929c.2373 0 .4532.082.6465.246v2.1934c-.2284.1845-.4668.2754-.7129.2754-.4715 0-.707-.4025-.707-1.211 0-1.0016.258-1.5038.7734-1.5038zm-4.793 1.6484c.123 0 .2403.009.3516.0293v.7617c-.1464.252-.38.377-.6992.377-.1728 0-.3154-.046-.4297-.1367-.126-.0996-.1894-.2315-.1894-.3985 0-.2226.1114-.3906.334-.502.1757-.0878.3867-.1308.6328-.1308z"/>
    </svg>
        </g>

    <!-- Etiquetas -->
    <g font-size="13" font-family="JetBrains Mono, ui-monospace, monospace" fill="#9aa0a6" text-anchor="middle">
        <text x="100" y="92">Arduino</text>
        <text x="300" y="92">Proteus</text>
        <text x="500" y="92">Kicad</text>
    </g>
</svg>
