<svg width="600" height="140" viewBox="0 0 600 140"
    xmlns="http://www.w3.org/2000/svg">
    <!-- Fondo -->
    <rect x="8" y="8" rx="16" ry="16" width="584" height="124" fill="#000000" stroke="#1f1f1f" stroke-width="2"/>

    <g transform="translate(-10,28) scale(0.3125)">
        <svg xmlns="http://www.w3.org/2000/svg" viewBox="0 0 128 128">
            <path fill="#E44D26" d="M19.037 113.876L9.032 1.661h109.936l-10.016 112.198-45.019 12.48z"/>
            <path fill="#F16529" d="M64 116.8l36.378-10.086 8.559-95.878H64z"/>
            <path fill="#EBEBEB" d="M64 52.455H45.788L44.53 38.361H64V24.599H29.489l.33 3.692 3.382 37.927H64zm0 35.743l-.061.017-15.327-4.14-.979-10.975H33.816l1.928 21.609 28.193 7.826.063-.017z"/>
            <path fill="#fff" d="M63.952 52.455v13.763h16.947l-1.597 17.849-15.35 4.143v14.319l28.215-7.82.207-2.325 3.234-36.233.335-3.696h-3.708zm0-27.856v13.762h33.244l.276-3.092.628-6.978.329-3.692z"/>
        </svg>
    </g>

    <g transform="translate(72,28) scale(0.3125)">
        <svg xmlns="http://www.w3.org/2000/svg" viewBox="0 0 128 128">
            <path fill="#1572B6" d="M18.814 114.123L8.76 1.352h110.48l-10.064 112.754-45.243 12.543-45.119-12.526z"/>
            <path fill="#33A9DC" d="M64.001 117.062l36.559-10.136 8.601-96.354h-45.16v106.49z"/>
            <path fill="#fff" d="M64.001 51.429h18.302l1.264-14.163H64.001V23.435h34.682l-.332 3.711-3.4 38.114h-30.95V51.429z"/>
            <path fill="#EBEBEB" d="M64.083 87.349l-.061.018-15.403-4.159-.985-11.031H33.752l1.937 21.717 28.331 7.863.063-.018v-14.39z"/>
            <path fill="#fff" d="M81.127 64.675l-1.666 18.522-15.426 4.164v14.39l28.354-7.858.208-2.337 2.406-26.881H81.127z"/>
            <path fill="#EBEBEB" d="M64.048 23.435v13.831H30.64l-.277-3.108-.63-7.012-.331-3.711h34.646zm-.047 27.996v13.831H48.792l-.277-3.108-.631-7.012-.33-3.711h16.447z"/>
        </svg>
    </g>

    <g transform="translate(225,28) scale(0.7)">
        <svg xmlns="http://www.w3.org/2000/svg" width="64" height="64">
            <defs>
                <linearGradient x1="0" y1="-21.333" y2="85.333" id="A" x2="64" gradientUnits="userSpaceOnUse">
                    <stop stop-color="#2383ae" offset="0%"/>
                    <stop stop-color="#6dd7b9" offset="100%"/>
                </linearGradient>
            </defs>
            <path d="M16 25.6c2.133-8.533 7.467-12.8 16-12.8 12.8 0 14.4 9.6 20.8 11.2 4.267 1.067 8-.533 11.2-4.8C61.867 27.733 56.533 32 48 32c-12.8 0-14.4-9.6-20.8-11.2-4.267-1.067-8 .533-11.2 4.8zM0 44.8C2.133 36.267 7.467 32 16 32c12.8 0 14.4 9.6 20.8 11.2 4.267 1.067 8-.533 11.2-4.8-2.133 8.533-7.467 12.8-16 12.8-12.8 0-14.4-9.6-20.8-11.2-4.267-1.067-8 .533-11.2 4.8z" fill="url(#A)" fill-rule="evenodd"/>
        </svg>
    </g>

    <g transform="translate(238,28) scale(0.3125)">
        <svg xmlns="http://www.w3.org/2000/svg" viewBox="0 0 128 128">
            <g fill="#61DAFB">
                <circle cx="64" cy="64" r="11.4"/>
                <path d="M107.3 45.2c-2.2-.8-4.5-1.6-6.9-2.3.6-2.4 1.1-4.8 1.5-7.1 2.1-13.2-.2-22.5-6.6-26.1-1.9-1.1-4-1.6-6.4-1.6-7 0-15.9 5.2-24.9 13.9-9-8.7-17.9-13.9-24.9-13.9-2.4 0-4.5.5-6.4 1.6-6.4 3.7-8.7 13-6.6 26.1.4 2.3.9 4.7 1.5 7.1-2.4.7-4.7 1.4-6.9 2.3C8.2 50 1.4 56.6 1.4 64s6.9 14 19.3 18.8c2.2.8 4.5 1.6 6.9 2.3-.6 2.4-1.1 4.8-1.5 7.1-2.1 13.2.2 22.5 6.6 26.1 1.9 1.1 4 1.6 6.4 1.6 7.1 0 16-5.2 24.9-13.9 9 8.7 17.9 13.9 24.9 13.9 2.4 0 4.5-.5 6.4-1.6 6.4-3.7 8.7-13 6.6-26.1-.4-2.3-.9-4.7-1.5-7.1 2.4-.7 4.7-1.4 6.9-2.3 12.5-4.8 19.3-11.4 19.3-18.8s-6.8-14-19.3-18.8zM92.5 14.7c4.1 2.4 5.5 9.8 3.8 20.3-.3 2.1-.8 4.3-1.4 6.6-5.2-1.2-10.7-2-16.5-2.5-3.4-4.8-6.9-9.1-10.4-13 7.4-7.3 14.9-12.3 21-12.3 1.3 0 2.5.3 3.5.9zM81.3 74c-1.8 3.2-3.9 6.4-6.1 9.6-3.7.3-7.4.4-11.2.4-3.9 0-7.6-.1-11.2-.4-2.2-3.2-4.2-6.4-6-9.6-1.9-3.3-3.7-6.7-5.3-10 1.6-3.3 3.4-6.7 5.3-10 1.8-3.2 3.9-6.4 6.1-9.6 3.7-.3 7.4-.4 11.2-.4 3.9 0 7.6.1 11.2.4 2.2 3.2 4.2 6.4 6 9.6 1.9 3.3 3.7 6.7 5.3 10-1.7 3.3-3.4 6.6-5.3 10zm8.3-3.3c1.5 3.5 2.7 6.9 3.8 10.3-3.4.8-7 1.4-10.8 1.9 1.2-1.9 2.5-3.9 3.6-6 1.2-2.1 2.3-4.2 3.4-6.2zM64 97.8c-2.4-2.6-4.7-5.4-6.9-8.3 2.3.1 4.6.2 6.9.2 2.3 0 4.6-.1 6.9-.2-2.2 2.9-4.5 5.7-6.9 8.3zm-18.6-15c-3.8-.5-7.4-1.1-10.8-1.9 1.1-3.3 2.3-6.8 3.8-10.3 1.1 2 2.2 4.1 3.4 6.1 1.2 2.2 2.4 4.1 3.6 6.1zm-7-25.5c-1.5-3.5-2.7-6.9-3.8-10.3 3.4-.8 7-1.4 10.8-1.9-1.2 1.9-2.5 3.9-3.6 6-1.2 2.1-2.3 4.2-3.4 6.2zM64 30.2c2.4 2.6 4.7 5.4 6.9 8.3-2.3-.1-4.6-.2-6.9-.2-2.3 0-4.6.1-6.9.2 2.2-2.9 4.5-5.7 6.9-8.3zm22.2 21l-3.6-6c3.8.5 7.4 1.1 10.8 1.9-1.1 3.3-2.3 6.8-3.8 10.3-1.1-2.1-2.2-4.2-3.4-6.2zM31.7 35c-1.7-10.5-.3-17.9 3.8-20.3 1-.6 2.2-.9 3.5-.9 6 0 13.5 4.9 21 12.3-3.5 3.8-7 8.2-10.4 13-5.8.5-11.3 1.4-16.5 2.5-.6-2.3-1-4.5-1.4-6.6zM7 64c0-4.7 5.7-9.7 15.7-13.4 2-.8 4.2-1.5 6.4-2.1 1.6 5 3.6 10.3 6 15.6-2.4 5.3-4.5 10.5-6 15.5C15.3 75.6 7 69.6 7 64zm28.5 49.3c-4.1-2.4-5.5-9.8-3.8-20.3.3-2.1.8-4.3 1.4-6.6 5.2 1.2 10.7 2 16.5 2.5 3.4 4.8 6.9 9.1 10.4 13-7.4 7.3-14.9 12.3-21 12.3-1.3 0-2.5-.3-3.5-.9zM96.3 93c1.7 10.5.3 17.9-3.8 20.3-1 .6-2.2.9-3.5.9-6 0-13.5-4.9-21-12.3 3.5-3.8 7-8.2 10.4-13 5.8-.5 11.3-1.4 16.5-2.5.6 2.3 1 4.5 1.4 6.6zm9-15.6c-2 .8-4.2 1.5-6.4 2.1-1.6-5-3.6-10.3-6-15.6 2.4-5.3 4.5-10.5 6-15.5 13.8 4 22.1 10 22.1 15.6 0 4.7-5.8 9.7-15.7 13.4z"/>
            </g>
        </svg>
    </g>


    <g transform="translate(320,28) scale(0.3125)">
        <svg xmlns="http://www.w3.org/2000/svg" viewBox="0 0 128 128">
            <defs>
                <linearGradient id="a" x1="76.079" x2="523.48" y1="10.798" y2="365.95" gradientTransform="translate(1.11 14.613) scale(.24566)" gradientUnits="userSpaceOnUse">
                    <stop offset="0" stop-color="#9013fe"/>
                    <stop offset="1" stop-color="#6610f2"/>
                </linearGradient>
                <linearGradient id="b" x1="193.51" x2="293.51" y1="109.74" y2="278.87" gradientTransform="translate(0 52)" gradientUnits="userSpaceOnUse">
                    <stop offset="0" stop-color="#fff"/>
                    <stop offset="1" stop-color="#f1e5fc"/>
                </linearGradient>
                <filter id="c" width="197" height="249" x="161.9" y="135.46" color-interpolation-filters="sRGB" filterUnits="userSpaceOnUse">
                    <feFlood flood-opacity="0" result="BackgroundImageFix"/>
                    <feColorMatrix in="SourceAlpha" values="0 0 0 0 0 0 0 0 0 0 0 0 0 0 0 0 0 0 127 0"/>
                    <feOffset dy="4"/>
                    <feGaussianBlur stdDeviation="8"/>
                    <feColorMatrix values="0 0 0 0 0 0 0 0 0 0 0 0 0 0 0 0 0 0 0.15 0"/>
                    <feBlend in2="BackgroundImageFix" result="effect1_dropShadow"/>
                    <feBlend in="SourceGraphic" in2="effect1_dropShadow" result="shape"/>
                </filter>
            </defs>
            <path fill="url(#a)" d="M14.985 27.712c-.237-6.815 5.072-13.099 12.249-13.099h73.54c7.177 0 12.486 6.284 12.249 13.099-.228 6.546.068 15.026 2.202 21.94 2.141 6.936 5.751 11.319 11.664 11.883v6.387c-5.913.564-9.523 4.947-11.664 11.883-2.134 6.914-2.43 15.394-2.202 21.94.237 6.815-5.072 13.098-12.249 13.098h-73.54c-7.177 0-12.486-6.284-12.249-13.098.228-6.546-.068-15.026-2.203-21.94-2.14-6.935-5.76-11.319-11.673-11.883v-6.387c5.913-.563 9.533-4.947 11.673-11.883 2.135-6.914 2.43-15.394 2.203-21.94z"/>
            <path fill="url(#b)" d="M267.1 364.46c47.297 0 75.798-23.158 75.798-61.355 0-28.873-20.336-49.776-50.532-53.085v-1.203c22.185-3.609 39.594-24.211 39.594-47.219 0-32.783-25.882-54.138-65.322-54.138h-88.74v217zm-54.692-189.48h45.911c24.958 0 39.131 11.128 39.131 31.279 0 21.505-16.484 33.535-46.372 33.535h-38.67zm0 161.96v-71.431h45.602c32.661 0 49.608 12.03 49.608 35.49 0 23.459-16.484 35.941-47.605 35.941z" filter="url(#c)" transform="translate(1.494 2.203) scale(.24566)"/>
        </svg>
    </g>


    <g transform="translate(480,28) scale(0.1)">
        <svg width="410" height="404" viewBox="0 0 410 404" fill="none"
            xmlns="http://www.w3.org/2000/svg">
            <path d="M399.641 59.5246L215.643 388.545C211.844 395.338 202.084 395.378 198.228 388.618L10.5817 59.5563C6.38087 52.1896 12.6802 43.2665 21.0281 44.7586L205.223 77.6824C206.398 77.8924 207.601 77.8904 208.776 77.6763L389.119 44.8058C397.439 43.2894 403.768 52.1434 399.641 59.5246Z" fill="url(#paint0_linear)"/>
            <path d="M292.965 1.5744L156.801 28.2552C154.563 28.6937 152.906 30.5903 152.771 32.8664L144.395 174.33C144.198 177.662 147.258 180.248 150.51 179.498L188.42 170.749C191.967 169.931 195.172 173.055 194.443 176.622L183.18 231.775C182.422 235.487 185.907 238.661 189.532 237.56L212.947 230.446C216.577 229.344 220.065 232.527 219.297 236.242L201.398 322.875C200.278 328.294 207.486 331.249 210.492 326.603L212.5 323.5L323.454 102.072C325.312 98.3645 322.108 94.137 318.036 94.9228L279.014 102.454C275.347 103.161 272.227 99.746 273.262 96.1583L298.731 7.86689C299.767 4.27314 296.636 0.855181 292.965 1.5744Z" fill="url(#paint1_linear)"/>
            <defs>
                <linearGradient id="paint0_linear" x1="6.00017" y1="32.9999" x2="235" y2="344" gradientUnits="userSpaceOnUse">
                    <stop stop-color="#41D1FF"/>
                    <stop offset="1" stop-color="#BD34FE"/>
                </linearGradient>
                <linearGradient id="paint1_linear" x1="194.651" y1="8.81818" x2="236.076" y2="292.989" gradientUnits="userSpaceOnUse">
                    <stop stop-color="#FFEA83"/>
                    <stop offset="0.0833333" stop-color="#FFDD35"/>
                    <stop offset="1" stop-color="#FFA800"/>
                </linearGradient>
            </defs>
        </svg>
    </g>

    <g font-size="13" font-family="JetBrains Mono, ui-monospace, monospace" fill="#9aa0a6" text-anchor="middle">
        <text x="83" y="92">HTML5</text>
        <text x="166" y="92">CSS3</text>
        <text x="249" y="92">TailwindCSS</text>
        <text x="332" y="92">React</text>
        <text x="415" y="92">Bootstrap</text>
        <text x="500" y="92">Vite</text>
    </g>
</svg>
