<svg width="600" height="140" viewBox="0 0 600 140"
    xmlns="http://www.w3.org/2000/svg">
    <!-- Fondo -->
    <rect x="8" y="8" rx="16" ry="16" width="584" height="124" fill="#000000" stroke="#1f1f1f" stroke-width="2"/>

    <!-- Express (40x40 @ x=140,y=28) -->
    <g transform="translate(16,28) scale(0.36)">
        <svg xmlns="http://www.w3.org/2000/svg" viewBox="0 0 128 128">
            <g fill="#1791cf">
                <path fill-rule="evenodd" d="M61.113 4.886C55.82 17.788 52.629 26.23 46.738 38.749c3.613 3.805 8.047 8.242 15.246 13.25-7.742-3.168-13.02-6.347-16.969-9.648-7.539 15.644-19.351 37.933-43.324 80.77 18.844-10.817 33.45-17.485 47.059-20.032a33.989 33.989 0 0 1-.895-8.023l.024-.602c.296-12.004 6.578-21.238 14.015-20.61 7.438.626 13.223 10.872 12.922 22.876-.055 2.261-.312 4.433-.762 6.449 13.465 2.621 27.914 9.273 46.5 19.941-3.664-6.707-6.933-12.757-10.058-18.52-4.922-3.792-10.055-8.726-20.524-14.073 7.196 1.863 12.348 4.007 16.364 6.406C74.578 38.12 72.004 30.308 61.113 4.886Zm0 0"/>
                <path d="M121.14 112.57v-3.243h-1.215v-.433h2.93v.433h-1.223v3.243h-.492M123.363 112.57v-3.676h.734l.875 2.601c.082.243.14.426.176.543.043-.132.11-.328.2-.586l.882-2.558h.66v3.676h-.472v-3.079l-1.075 3.079h-.441l-1.066-3.13v3.13h-.473"/>
            </g>
        </svg>
    </g>

    <!-- Spring Boot (40x40 @ x=420,y=28) -->
    <g transform="translate(138,28) scale(0.36)">
        <svg xmlns="http://www.w3.org/2000/svg" viewBox="0 0 128 128">
            <path fill="#A80030" d="M73.776 67.531c-2.065.028.391 1.063 3.087 1.479a27.453 27.453 0 002.023-1.741c-1.679.41-3.387.419-5.11.262m11.086-2.763c1.229-1.697 2.127-3.556 2.442-5.478-.276 1.369-1.019 2.553-1.72 3.801-3.86 2.431-.363-1.443-.002-2.916-4.15 5.225-.57 3.133-.72 4.593m4.093-10.648c.249-3.72-.733-2.544-1.063-1.125.384.201.69 2.622 1.063 1.125M65.944 3.283c1.102.198 2.381.35 2.202.612 1.206-.263 1.48-.506-2.202-.612m2.202.613l-.779.161.725-.064.054-.097m34.372 51.634c.123 3.34-.978 4.961-1.969 7.829l-1.786.892c-1.46 2.838.142 1.802-.903 4.059-2.281 2.027-6.921 6.345-8.406 6.738-1.084-.023.734-1.278.972-1.771-3.052 2.098-2.449 3.147-7.118 4.422l-.136-.305c-11.516 5.417-27.51-5.318-27.299-19.966-.123.931-.349.697-.605 1.074-.594-7.537 3.481-15.107 10.353-18.196 6.722-3.329 14.602-1.963 19.417 2.524-2.644-3.465-7.909-7.137-14.148-6.793-6.111.097-11.828 3.98-13.735 8.196-3.132 1.972-3.495 7.6-4.859 8.628-1.835 13.491 3.453 19.318 12.398 26.175 1.407.949.396 1.093.587 1.815-2.972-1.392-5.694-3.493-7.931-6.065 1.186 1.739 2.468 3.429 4.125 4.756-2.803-.949-6.546-6.79-7.64-7.028 4.832 8.649 19.599 15.169 27.333 11.935-3.579.131-8.124.073-12.145-1.413-1.688-.869-3.984-2.669-3.574-3.007 10.553 3.944 21.456 2.988 30.586-4.333 2.323-1.81 4.861-4.887 5.594-4.93-1.105 1.661.188.8-.66 2.266 2.316-3.733-1.005-1.521 2.394-6.448l1.256 1.729c-.467-3.098 3.848-6.861 3.41-11.762.99-1.499 1.104 1.612.054 5.061 1.457-3.825.384-4.44.759-7.597.404 1.062.935 2.188 1.208 3.308-.95-3.696.975-6.226 1.45-8.373-.467-.208-1.464 1.634-1.692-2.732.034-1.896.528-.993.718-1.46-.373-.215-1.349-1.668-1.944-4.456.431-.655 1.151 1.698 1.739 1.795-.378-2.217-1.028-3.907-1.053-5.609-1.713-3.579-.606.478-1.996-1.536-1.823-5.687 1.513-1.32 1.738-3.903 2.763 4.003 4.339 10.208 5.062 12.777-.552-3.133-1.443-6.168-2.532-9.105.839.354-1.352-6.446 1.091-1.943-2.609-9.6-11.166-18.569-19.038-22.778.962.881 2.179 1.989 1.743 2.162-3.915-2.331-3.227-2.513-3.787-3.498-3.19-1.297-3.399.104-5.511.003-6.012-3.188-7.171-2.85-12.703-4.848l.252 1.177c-3.984-1.327-4.641.503-8.945.004-.263-.205 1.379-.74 2.73-.937-3.85.508-3.67-.759-7.438.14.929-.651 1.909-1.082 2.9-1.637-3.139.191-7.495 1.828-6.151.339-5.121 2.286-14.218 5.493-19.322 10.28l-.161-1.073c-2.339 2.809-10.2 8.387-10.826 12.022l-.625.146c-1.218 2.06-2.004 4.396-2.97 6.517-1.592 2.713-2.334 1.044-2.107 1.469-3.132 6.349-4.687 11.683-6.03 16.057.958 1.432.022 8.614.385 14.364-1.572 28.394 19.928 55.962 43.43 62.329 3.445 1.23 8.567 1.184 12.924 1.311-5.141-1.471-5.806-.778-10.813-2.525-3.614-1.701-4.405-3.644-6.964-5.864l1.014 1.79c-5.019-1.775-2.918-2.198-7.002-3.491l1.083-1.412c-1.627-.123-4.309-2.74-5.042-4.191l-1.779.07c-2.138-2.638-3.277-4.538-3.194-6.011l-.575 1.024c-.652-1.119-7.865-9.893-4.123-7.85-.696-.637-1.62-1.035-2.622-2.856l.762-.871c-1.802-2.316-3.315-5.287-3.2-6.276.96 1.298 1.627 1.54 2.287 1.763-4.548-11.285-4.803-.622-8.248-11.487l.729-.059c-.559-.842-.898-1.756-1.347-2.652l.316-3.161c-3.274-3.786-.916-16.098-.443-22.851.328-2.746 2.733-5.669 4.563-10.252l-1.114-.192c2.131-3.717 12.167-14.928 16.815-14.351 2.251-2.829-.446-.011-.886-.723 4.945-5.119 6.5-3.617 9.838-4.537 3.6-2.137-3.089.833-1.383-.815 6.223-1.589 4.41-3.613 12.528-4.42.857.487-1.987.752-2.701 1.385 5.185-2.536 16.408-1.959 23.697 1.408 8.458 3.952 17.961 15.638 18.336 26.631l.427.114c-.216 4.37.669 9.424-.865 14.066l1.043-2.201M51.233 70.366l-.29 1.448c1.357 1.845 2.435 3.843 4.167 5.283-1.246-2.434-2.173-3.44-3.877-6.731m3.208-.126c-.718-.795-1.144-1.751-1.62-2.704.456 1.675 1.388 3.114 2.255 4.578l-.635-1.874m56.785-12.343l-.304.762a36.72 36.72 0 01-3.599 11.487 36.107 36.107 0 003.903-12.249M66.353 2.293c1.396-.513 3.433-.281 4.914-.617-1.93.162-3.852.259-5.75.503l.836.114M17.326 28.362c.322 2.979-2.242 4.135.567 2.171 1.506-3.39-.588-.935-.567-2.171M14.025 42.15c.646-1.986.764-3.18 1.011-4.328-1.788 2.285-.823 2.773-1.011 4.328"/>
        </svg>
    </g>

    <g transform="translate(250,28) scale(0.4)">
        <svg viewBox="0 0 512 512"
            xmlns="http://www.w3.org/2000/svg"
            xmlns:xlink="http://www.w3.org/1999/xlink">
            <linearGradient id="a" gradientUnits="userSpaceOnUse" x1="194.5943408" x2="313.2707288" y1="356.7605792" y2="238.0841912">
                <stop offset="0" stop-color="#249eff"/>
                <stop offset="1" stop-color="#2777ff"/>
            </linearGradient>
            <g stroke-width=".80766" transform="translate(-14.544 -2.4096)">
                <circle cx="270.54" cy="258.41" fill="url(#a)" r="181.72"/>
                <path d="m452.08 253.39a181.72 181.72 0 0 1 -181.54 178.17 181.72 181.72 0 0 1 -181.54-176.71 181.72 181.72 0 0 0 -.17734 3.555 181.72 181.72 0 0 0 181.72 181.72 181.72 181.72 0 0 0 181.72-181.72 181.72 181.72 0 0 0 -.17733-5.0189z" opacity=".3"/>
                <path d="m270.54 76.691a181.72 181.72 0 0 0 -181.72 181.72 181.72 181.72 0 0 0 .17734 5.0105 181.72 181.72 0 0 1 181.54-178.16 181.72 181.72 0 0 1 181.54 176.7 181.72 181.72 0 0 0 .17733-3.5467 181.72 181.72 0 0 0 -181.72-181.72z" fill="#fff" opacity=".1"/>
            </g>
            <path d="m71.938 132.22c-29.422.0336-48.857 2.4022-49.018 2.4219-.00066.00008-.11132.01-.11132.01-1.9208.22095-1.6766 3.0824.2539 2.9746 0 0 106.98-5.0542 192.73 29.41 3.0595 13.089 11.139 33.152 15.912 43.816-6.4977 4.4595-13.468 8.9863-19.203 16.17-6.0198 7.5407-10.569 17.947-11.781 33.859-2.4573 32.277 25.225 60.533 59.463 61.404 31.749 1.6903 53.335 1.9234 79.613 15.543 12.272 6.7936 23.702 20.759 32.238 37.818 8.5411 17.068 14.208 37.205 15.225 56.195.0953 1.8662 2.8387 1.9003 2.9805.0371.005-.0578-.002-.13723.002-.19531 1.1026-14.541-1.0448-37.049-9.7617-58.461-7.3013-17.935-19.364-35.01-37.91-45.719 26.655 7.2789 41.914 20.807 50.686 33.168 10.065 14.183 11.551 26.806 11.543 26.736.21183 1.7846 2.8153 1.7434 2.9707-.0469 0 0 1.3231-15.473-9.3535-32.521-10.677-17.048-33.342-35.683-80.594-42.617-11.969-1.7561-27.074-3.1058-42.381-3.1445-.008-.00006-.0156-.00006-.0234 0-37.042.48976-55.716-20.623-58.623-42.279-1.4537-10.828 1.0887-21.796 7.3789-30.295 6.2903-8.4988 16.301-14.584 30.094-15.662h.006c22.647-1.8687 50.269 10.379 77.432 23.018-.027 3.1387.25112 6.3048 2.5449 9.1719 1.5359 1.9198 4.3068 3.2538 7.127 4.5859 2.8195 1.3318 5.7216 2.5388 6.873 3.1992 2.6176 1.5025 11.349 7.1032 16.496 13.803.66067.86123 1.9903.75224 2.502-.20508.0267-.05.80919-.9524 1.8418-1.8164 1.0326-.86401 2.3429-1.8488 3.6191-2.7676 2.5524-1.8375 4.9688-3.4121 4.9688-3.4121 1.2578-.81978.65535-2.7746-.8457-2.7441 0 0-.36678.0207-1.5391-.20313-1.1723-.22385-3.0361-.69459-5.6875-1.6855-2.4401-.91186-5.355-2.8865-7.6035-4.6719-1.1243-.89269-2.0919-1.7367-2.7754-2.3691-.0817-.0756-.11608-.11241-.18945-.18164.71444-.64282.81228-1.6703.66797-2.3164-.14752-.66029-.4352-1.1955-.75782-1.7168-.64468-1.0417-1.4644-1.9704-2.0312-2.5371l-.002-.002c.0821.0819-.16776-.20989-.41992-.57812-.25313-.36964-.57883-.86898-.94532-1.4453-.73297-1.1527-1.6317-2.6184-2.5058-4.0625-1.7483-2.8882-3.3259-5.5727-3.4785-5.8281-.002-.004-.37979-.7993-1.1133-1.2891-.1154-.0769-.24096-.13741-.37305-.17969-.82802-.26627-1.4844-.20389-2.334-.16015-.84955.0437-1.7923.1437-2.6856.25781-1.4943.19089-2.4216.35926-2.8262.42969-1.0103-.53287-8.9072-4.9072-11.809-13.82-.53531-1.6348-2.955-1.2177-2.9121.50196.0158.58562-.87006 2.3306-.67774 4.9707-3.5086-2.1141-6.527-5.4732-9.1562-12.393-.48274-1.276-2.2828-1.2899-2.7852-.0215-1.0069 2.5321-1.0677 4.6507-.86329 6.293-3.3327-1.5671-8.7895-5.0153-9.9785-11.869-.25503-1.4664-2.2636-1.698-2.8457-.32812-.98011 2.3107-1.0671 4.2231-.90235 5.7637-6.2107-2.6638-23.316-8.893-48.844-9.0312-4.927-.4525-8.8427-2.918-12.059-6.6152-3.2163-3.6977-5.659-8.6263-7.3887-13.73-1.7297-5.1042-2.7521-10.38-3.2148-14.732-.46272-4.3524-.2681-7.9507.0547-8.9824.21555-.6878-.0909-1.4314-.72852-1.7676 0 0-31.217-16.422-92.244-23.641-22.882-2.7067-44.211-3.5339-61.938-3.5137zm71.268 32.521c-9.2988.0701-19.28.41666-29.768 1.1621-56.026 3.9823-112.43 23.557-112.43 23.557-1.8043.62272-.9969 3.3276.85352 2.8594 0 0 115.04-28.873 211.14-11.949.0851.0153.17136.0231.25781.0234h.004c1.0058-.00041 1.7236-.97485 1.4258-1.9356l-2.5117-8.1055c-.16523-.5344-.61525-.93165-1.166-1.0293 0 0-27.515-4.8845-67.803-4.582-.004-.00002-.008-.00002-.0117 0zm68.311 17.264c-9.8882-.0418-40.315 1.204-86.016 15.504-57.354 17.946-89.998 43.459-89.998 43.459-1.4384 1.1375.04323 3.3653 1.6484 2.4785 0 0 84.923-47.363 180.56-50.051.99906-.0288 1.6884-1.0119 1.375-1.9609l-2.748-8.3184c-.19067-.57703-.712-.98095-1.3184-1.0215 0 0-1.2177-.0802-3.5-.0899zm62.531-.13867c-1.4649.0214-2.0262 1.9197-.8086 2.7344h.002c.0877.0585.18128.10765.27929.14648 26.227 10.663 48.975 24.757 66.609 44.131.0159.0173.0321.0342.0488.0508l.002.002c.30389.30352.72375.4615 1.1523.43359l4.2793-.2793c1.214-.0799 1.8281-1.5003 1.0547-2.4394 0 0-24.778-30.028-72.021-44.662-.005-.002-.0101-.006-.0156-.008-.0239-.009-.048-.0175-.0723-.0254-.0136-.005-.0273-.009-.041-.0137-.15151-.0482-.30975-.072-.46875-.0703zm74.68 63.225c.858.17286 2.4764 3.3569 3.9629 5.6309.1305.18477.26337.38161.38867.53711 0 .0138.002.0235.0117.0371.1679.23967.33529.48794.49609.6875.081.47558.21622.76606-.89648.53711-.094-.48886-.25391-.63086-.25391-.63086s-2.6864-1.5969-3.5098-2.7305c-.8241-1.1335-.9681-3.1153-.5664-3.8672.0971-.16808.22119-.22899.36719-.20118z" opacity=".3"/>
            <g fill="#fff" transform="translate(2.0107)">
                <path d="m69.929 127.71c-29.464.0337-48.949 2.4206-48.949 2.4206s107.73-5.1706 194.03 29.769c2.9338 13.122 11.759 34.976 16.513 45.481-13.602 9.4041-28.94 18.249-31.328 49.612-2.3877 31.362 24.576 58.947 58.013 59.798 31.751 1.6913 53.688 1.9323 80.277 15.718 25.38 14.034 46.192 56.794 48.251 95.252 2.2244-28.534-8.4845-89.895-58.453-108.53 69.826 12.219 75.982 63.973 75.984 63.994 0 0 5.2056-59.754-88.677-73.531-11.899-1.7458-26.947-3.0899-42.168-3.1283-75.246.99487-77.989-86.786-21.288-91.218 23.499-1.9389 51.556 10.738 78.986 23.512-.10182 3.4068.0405 6.4339 2.2787 9.2314 2.2375 2.7966 10.832 5.8474 13.579 7.4233 2.7464 1.5764 11.545 7.1715 16.937 14.189 1.1692-2.1872 10.933-8.5432 10.933-8.5432s-2.3391.0507-7.781-1.9832c-5.4426-2.0339-11.9-8.1876-12.053-8.5432-.15246-.35625-.25501-.91601 1.0169-1.1705.96572-.81305-1.2209-3.4575-2.1873-4.4232-.96572-.96636-7.4247-11.95-7.5769-12.204-.15245-.25447-.20376-.50931-.66105-.81465-1.4244-.45805-7.6799.66106-7.6799.66106s-9.6211-4.7252-12.937-14.913c.0482 1.7844-1.6497 3.734 0 7.8335-5.0162-2.122-9.325-5.7416-12.723-14.685-2.0227 5.0868 0 8.3215 0 8.3215s-11.811-3.3016-13.701-14.195c-2.0742 4.8902 0 7.8316 0 7.8316s-19.258-10.048-51.255-10.194c-21.422-1.965-25.882-39.65-23.897-45.994 0 0-30.899-16.285-91.723-23.479-22.809-2.6982-44.081-3.5238-61.76-3.5036zm71.276 32.521c-9.2697.0699-19.22.41577-29.674 1.1588-55.751 3.9628-112.04 23.477-112.04 23.477s115.18-28.98 211.77-11.971h.002l-2.512-8.1057s-27.374-4.862-67.542-4.5594zm68.293 17.263c-9.75-.0412-40.02 1.1848-85.564 15.436-57.124 17.874-89.522 43.21-89.522 43.21s85.141-47.539 181.24-50.24l-2.7492-8.3176s-1.1564-.0779-3.4064-.0875zm62.559-.13932c26.38 10.723 49.34 24.931 67.165 44.514l.002.002 4.2794-.27998s-24.518-29.746-71.447-44.236zm72.712 57.183 5.2496 3.8672c.65793-1.1408 3.31 6.0651 4.9229 8.0668.0683.3997-2.6812 3.6124-3.6164 3.42-.0787-.41087-4.3494-1.6449-4.3494-1.6449s-4.853-2.932-5.5451-3.8847c-.6926-.9527 3.0007-9.1925 3.3383-9.8244z" stroke="#fff" stroke-linejoin="round" stroke-width="2.9864"/>
                <path d="m69.929 127.71c-29.464.0337-48.949 2.4206-48.949 2.4206s107.73-5.1706 194.03 29.769c2.9338 13.122 11.759 34.976 16.513 45.481-13.602 9.4041-28.94 18.249-31.328 49.612-2.3877 31.362 24.576 58.947 58.013 59.798 31.751 1.6913 53.688 1.9323 80.277 15.718 25.38 14.034 46.192 56.794 48.251 95.252 2.2244-28.534-8.4845-89.895-58.453-108.53 69.826 12.219 75.982 63.973 75.984 63.994 0 0 5.2056-59.754-88.677-73.531-11.899-1.7458-26.947-3.0899-42.168-3.1283-75.246.99487-77.989-86.786-21.288-91.218 23.499-1.9389 51.556 10.738 78.986 23.512-.10182 3.4068.0404 6.4339 2.2787 9.2314 2.2375 2.7966 10.832 5.8474 13.579 7.4233 2.7464 1.5764 11.545 7.1715 16.937 14.189 1.1692-2.1872 10.933-8.5432 10.933-8.5432s-2.3391.0507-7.781-1.9832c-5.4426-2.0339-11.9-8.1876-12.053-8.5432-.15246-.35625-.25501-.91601 1.0169-1.1705.96572-.81305-1.2209-3.4575-2.1873-4.4232-.96572-.96636-7.4247-11.95-7.5769-12.204-.15245-.25447-.20376-.50931-.66105-.81465-1.4244-.45805-7.6799.66106-7.6799.66106s-9.6211-4.7252-12.937-14.913c.0482 1.7844-1.6497 3.734 0 7.8335-5.0162-2.122-9.325-5.7416-12.723-14.685-2.0227 5.0868 0 8.3215 0 8.3215s-11.811-3.3016-13.701-14.195c-2.0742 4.8902 0 7.8316 0 7.8316s-19.258-10.048-51.255-10.194c-21.422-1.965-25.882-39.65-23.897-45.994 0 0-30.899-16.285-91.723-23.479-22.809-2.6982-44.081-3.5238-61.76-3.5036zm71.276 32.521c-9.2697.0699-19.22.41577-29.674 1.1588-55.751 3.9628-112.04 23.477-112.04 23.477s115.18-28.98 211.77-11.971h.002l-2.512-8.1057s-27.373-4.5594-67.542-4.5594zm68.293 17.263c-9.75-.0412-40.02 1.1848-85.564 15.436-57.124 17.874-89.522 43.21-89.522 43.21s85.141-47.539 181.24-50.24l-2.7492-8.3176s-1.1564-.0779-3.4064-.0875zm62.559-.13932c26.38 10.723 49.34 24.931 67.165 44.514l.002.002 4.2794-.27998s-24.518-29.746-71.446-44.236zm74.662 61.731c.85796.17286 2.4779 3.3567 3.9644 5.6306.13054.18477.26356.38112.38886.53662.002.0138.003.0234.006.037.16796.23967.33693.4887.49774.68826.0812.47558.21641.76558-.89631.53663-.0936-.48886-.25471-.62995-.25471-.62995s-2.686-1.5982-3.5094-2.7317c-.82408-1.1335-.96948-3.1153-.56774-3.8672.0978-.16967.2236-.23004.37137-.20027z"/>
            </g>
        </svg>
    </g>

    <g transform="translate(396,28) scale(0.34)">
        <svg xmlns="http://www.w3.org/2000/svg" viewBox="0 0 128 128">
            <path fill="#E95420" d="M104.663 0H24v128h80.663V0Z"/>
            <path fill="#fff" d="M42.443 90.31c4.611 0 8.35-3.768 8.35-8.416 0-4.648-3.739-8.416-8.35-8.416-4.612 0-8.35 3.768-8.35 8.416 0 4.648 3.738 8.416 8.35 8.416Zm34.778-18.454c4.612 0 8.35-3.768 8.35-8.416 0-4.648-3.738-8.416-8.35-8.416-4.611 0-8.35 3.768-8.35 8.416 0 4.648 3.739 8.416 8.35 8.416Zm-15.945 31.702c-6.016-1.299-11.042-5.17-13.868-10.662a11.934 11.934 0 0 1-7.14.883c3.419 8.464 10.67 14.611 19.573 16.535 1.953.422 3.943.627 5.93.614a12.107 12.107 0 0 1-2.444-7.037 20.048 20.048 0 0 1-2.048-.336l-.003.003Zm14.066 8.461c4.612 0 8.35-3.768 8.35-8.416 0-4.648-3.738-8.416-8.35-8.416-4.611 0-8.35 3.768-8.35 8.416 0 4.648 3.739 8.416 8.35 8.416Zm11.62-11.507c2.597-3.3 4.426-7.2 5.305-11.344a27.771 27.771 0 0 0-3.937-20.963 12.1 12.1 0 0 1-4.695 5.542 20.736 20.736 0 0 1 1.93 13.975 20.658 20.658 0 0 1-2.597 6.521 12.092 12.092 0 0 1 3.997 6.272l-.003-.003ZM41.8 69.824a11.785 11.785 0 0 1 3.156.256c1.361.294 2.64.813 3.812 1.549 3.76-5.45 9.826-8.72 16.399-8.842a12.213 12.213 0 0 1 2.534-6.826c-10.503-.838-20.708 4.625-25.905 13.866l.003-.003Z"/>
        </svg>
    </g>

    <!-- Etiquetas -->
    <g font-size="13" font-family="JetBrains Mono, ui-monospace, monospace" fill="#9aa0a6" text-anchor="middle">
        <text x="125" y="92">Arch Linux</text>
        <text x="250" y="92">Debian</text>
        <text x="375" y="92">Kali Linux</text>
        <text x="500" y="92">Ubuntu</text>
    </g>
</svg>
